<?xml version="1.0"?>
<svg width="54" height="54" xmlns="http://www.w3.org/2000/svg" xmlns:svg="http://www.w3.org/2000/svg" version="1.1">
 <metadata id="metadata4784">image/svg+xml</metadata>
 <g class="layer">
  <title>Layer 1</title>
  <g id="layer1" transform="translate(-84,-202)">
   <path d="m98.73144,239.05879c-0.04832,1.34102 -0.22572,2.85608 -0.55449,4.58473c-0.16811,0.58528 -0.25425,1.1928 -0.25425,1.82418c0,3.37235 2.19456,6.00127 6.58358,7.88582c3.39714,1.463 7.06699,2.19419 11.00966,2.19419c4.04186,0 7.74894,-0.73119 11.12129,-2.19419c4.38901,-1.90934 6.58357,-4.5998 6.58357,-8.07134c0,-2.44827 -0.65054,-4.52106 -1.94251,-6.22339l-9.94461,0c5.09625,0.83055 7.64707,2.96591 7.64707,6.40891c0,2.67805 -1.63661,4.81056 -4.90977,6.39754c-2.62845,1.26463 -5.45543,1.89704 -8.48062,1.89704c-3.05,0 -5.9142,-0.63241 -8.59224,-1.89704c-3.32276,-1.56219 -4.98419,-3.6947 -4.98419,-6.39754c0,-1.78536 0.64482,-3.37234 1.93424,-4.76095c0.73505,-0.76278 1.5438,-1.3119 2.42621,-1.64796l-7.64294,0z" fill="#15a700" fill-opacity="0.216814" id="path895-2" stroke-width="0.892681px"/>
   <path d="m492.26562,767.63281c-11.62125,0 -22.259,4.73355 -31.9121,14.19922c-9.18456,-7.2164 -19.82227,-10.82617 -31.91211,-10.82617c-12.74589,0 -23.94452,4.07689 -33.59766,12.23047c-10.12176,8.62223 -15.18359,19.21302 -15.18359,31.77148c0,12.74589 4.7335,23.10218 14.19922,31.06836c-6.1855,7.31014 -9.27735,15.55767 -9.27735,24.74219c0,12.18357 4.40319,21.17963 13.21289,26.99023c-3.54678,1.01972 -6.8213,2.36677 -9.84375,4.01563c-4.44691,-12.65068 -13.1634,-34.39747 -22.94726,-42.41797c-5.13185,-4.20692 -10.86709,-6.04863 -17.20703,-5.52539c-6.45409,0.42966 -11.7852,3.2098 -15.99219,8.3418c-5.98323,7.29879 -5.43996,13.84625 1.63086,19.64257c7.07063,5.79629 13.45738,5.21637 19.16015,-1.74023c4.11371,-5.018 4.9342,-9.97003 2.45899,-14.85938c1.21335,0.61346 2.44667,1.43253 3.70117,2.46094c9.01322,7.38876 15.07817,17.04526 14.40234,35.80274l28.88672,0c2.6279,-1.00081 5.42857,-1.50196 8.40235,-1.50196l26.85156,0c8.07207,0 15.1605,0.5038 21.28515,1.50196l37.58594,0c-3.17839,-4.18792 -7.37405,-7.78822 -12.62109,-10.78125c-9.65314,-5.52949 -25.81981,-8.29297 -48.5,-8.29297c-1.78065,0 -4.40345,0.0938 -7.8711,0.28125c-3.46764,0.0937 -6.09236,0.14062 -7.87304,0.14062c-17.1507,0 -25.72656,-6.983 -25.72657,-20.94726c0,-5.34202 1.68664,-10.02864 5.06055,-14.0586c8.80966,6.27927 18.7438,9.41993 29.80274,9.41993c12.74589,0 23.89953,-4.12372 33.45898,-12.3711c10.12169,-8.6222 15.18164,-19.21302 15.18164,-31.77148c0,-11.80868 -4.07685,-21.50832 -12.23047,-29.09961c8.34108,-7.87249 17.38594,-11.8086 27.13282,-11.8086c1.0309,0 1.96706,0.0938 2.81054,0.28125c-3.18648,1.4058 -4.77929,4.16928 -4.7793,8.29297c0,5.71692 2.90616,8.57617 8.7168,8.57617c5.81061,0 8.71485,-2.99997 8.71485,-8.99804c0,-4.21739 -1.499,-7.73134 -4.49805,-10.54297c-2.90529,-2.81159 -6.46617,-4.2168 -10.6836,-4.2168zm-63.82421,10.26172c17.52559,0 26.28906,12.37125 26.28906,37.11328c0,11.24636 -1.63975,19.63458 -4.91992,25.16407c-4.77974,8.05988 -11.90347,12.08984 -21.36914,12.08984c-17.52564,0 -26.28711,-12.37129 -26.28711,-37.11328c0,-11.24636 1.59281,-19.58765 4.77929,-25.02344c4.77971,-8.15361 11.94837,-12.23047 21.50782,-12.23047z" fill="#15a700" id="path895-2-5" stroke-width="3.373912px" transform="scale(0.26458333)"/>
  </g>
 </g>
</svg>