<?xml version="1.0" standalone="no"?>
<!DOCTYPE svg PUBLIC "-//W3C//DTD SVG 1.1//EN"
"http://www.w3.org/Graphics/SVG/1.1/DTD/svg11.dtd">
<!-- Created with dep2pict 2.37.0 -->
<svg xmlns:svg="http://www.w3.org/2000/svg" xmlns="http://www.w3.org/2000/svg" xmlns:xlink="http://www.w3.org/1999/xlink" width="787.70898" height="185.00781">
<rect x="0" y="0" width="787.70898" height="185.00781" style="fill:white;fill-opacity:0;" />
<g  transform="translate(0,139.36719) scale(2,2)">
<text id="word__N_0" x="26.8428" y="-14.4062" font-style="normal" font-weight="normal" fill="black" font-size="12" font-family="Arial" text-anchor="middle" text-align="center">
<tspan   x="26.8428" dy="12.8633">__0__</tspan>
</text>
<text id="word__N_1" x="83.1133" y="-14.4062" font-style="normal" font-weight="normal" fill="black" font-size="12" font-family="Arial" text-anchor="middle" text-align="center">
<tspan   x="83.1133" dy="12.8633">Firnde</tspan>
</text>
<text id="subword__N_1" x="83.1133" y="-1.54297" fill="black" font-size="7" font-family="Arial" text-anchor="middle" text-align="center">
<tspan   x="83.1133" dy="8.33691">upos=NOUN</tspan>
</text>
<text id="word__N_2" x="138.881" y="-14.4062" font-style="normal" font-weight="normal" fill="black" font-size="12" font-family="Arial" text-anchor="middle" text-align="center">
<tspan   x="138.881" dy="12.8633">loolu</tspan>
</text>
<text id="subword__N_2" x="138.881" y="-1.54297" fill="black" font-size="7" font-family="Arial" text-anchor="middle" text-align="center">
<tspan   x="138.881" dy="8.33691">upos=DET</tspan>
</text>
<text id="word__N_3" x="191.804" y="-14.4062" font-style="normal" font-weight="normal" fill="black" font-size="12" font-family="Arial" text-anchor="middle" text-align="center">
<tspan   x="191.804" dy="12.8633">doon</tspan>
</text>
<text id="subword__N_3" x="191.804" y="-1.54297" fill="black" font-size="7" font-family="Arial" text-anchor="middle" text-align="center">
<tspan   x="191.804" dy="8.33691">upos=AUX</tspan>
</text>
<text id="word__N_4" x="244.972" y="-14.4062" font-style="normal" font-weight="normal" fill="black" font-size="12" font-family="Arial" text-anchor="middle" text-align="center">
<tspan   x="244.972" dy="12.8633">na</tspan>
</text>
<text id="subword__N_4" x="244.972" y="-1.54297" fill="black" font-size="7" font-family="Arial" text-anchor="middle" text-align="center">
<tspan   x="244.972" dy="8.33691">upos=AUX</tspan>
</text>
<text id="word__N_5" x="300.311" y="-14.4062" font-style="normal" font-weight="normal" fill="black" font-size="12" font-family="Arial" text-anchor="middle" text-align="center">
<tspan   x="300.311" dy="12.8633">feeñi</tspan>
</text>
<text id="subword__N_5" x="300.311" y="-1.54297" fill="black" font-size="7" font-family="Arial" text-anchor="middle" text-align="center">
<tspan   x="300.311" dy="8.33691">upos=VERB</tspan>
</text>
<text id="word__N_6" x="360.46" y="-14.4062" font-style="normal" font-weight="normal" fill="black" font-size="12" font-family="Arial" text-anchor="middle" text-align="center">
<tspan   x="360.46" dy="12.8633">.</tspan>
</text>
<text id="subword__N_6" x="360.46" y="-1.54297" fill="black" font-size="7" font-family="Arial" text-anchor="middle" text-align="center">
<tspan   x="360.46" dy="8.33691">upos=PUNCT</tspan>
</text>

<marker id="markerendword_1" markerWidth="5" markerHeight="5" markerUnits="userSpaceOnUse" orient="auto" refX="2" refY="2">
<path d="M0,0 l4,2 l-4,2 z" style="fill:black;"/>
</marker>
<text id="label__N_1__N_2__det" x="112.11328" y="-24.40625" style="fill:black;font-size:7px;font-family:Arial;text-anchor:middle;text-align:center" >det</text>
<path style="marker-end:url(#markerendword_1);" stroke="black" fill="none" d="M 85.61328,-13.40625 85.61328,-18.40625 A 3 3 0 0 1 88.61328,-21.40625 L 135.88062,-21.40625 A 3 3 0 0 1 138.88062,-18.40625 L 138.88062,-13.40625" ></path>
<marker id="markerendword_4" markerWidth="5" markerHeight="5" markerUnits="userSpaceOnUse" orient="auto" refX="2" refY="2">
<path d="M0,0 l4,2 l-4,2 z" style="fill:black;"/>
</marker>
<text id="label__N_4__N_3__comp:aux" x="215.80420" y="-24.40625" style="fill:black;font-size:7px;font-family:Arial;text-anchor:middle;text-align:center" >comp:aux</text>
<path style="marker-end:url(#markerendword_4);" stroke="black" fill="none" d="M 237.47217,-13.40625 237.47217,-18.40625 A 3 3 0 0 0 234.47217,-21.40625 L 197.30420,-21.40625 A 3 3 0 0 0 194.30420,-18.40625 L 194.30420,-13.40625" ></path>
<marker id="markerendword_2" markerWidth="5" markerHeight="5" markerUnits="userSpaceOnUse" orient="auto" refX="2" refY="2">
<path d="M0,0 l4,2 l-4,2 z" style="fill:black;"/>
</marker>
<text id="label__N_3__N_5__comp:aux" x="244.80420" y="-34.40625" style="fill:black;font-size:7px;font-family:Arial;text-anchor:middle;text-align:center" >comp:aux</text>
<path style="marker-end:url(#markerendword_2);" stroke="black" fill="none" d="M 189.30420,-13.40625 189.30420,-28.40625 A 3 3 0 0 1 192.30420,-31.40625 L 297.31055,-31.40625 A 3 3 0 0 1 300.31055,-28.40625 L 300.31055,-13.40625" ></path>
<marker id="markerendword_5" markerWidth="5" markerHeight="5" markerUnits="userSpaceOnUse" orient="auto" refX="2" refY="2">
<path d="M0,0 l4,2 l-4,2 z" style="fill:black;"/>
</marker>
<text id="label__N_4__N_6__punct" x="305.97217" y="-24.40625" style="fill:black;font-size:7px;font-family:Arial;text-anchor:middle;text-align:center" >punct</text>
<path style="marker-end:url(#markerendword_5);" stroke="black" fill="none" d="M 252.47217,-13.40625 252.47217,-18.40625 A 3 3 0 0 1 255.47217,-21.40625 L 357.45972,-21.40625 A 3 3 0 0 1 360.45972,-18.40625 L 360.45972,-13.40625" ></path>
<marker id="markerendword_3" markerWidth="5" markerHeight="5" markerUnits="userSpaceOnUse" orient="auto" refX="2" refY="2">
<path d="M0,0 l4,2 l-4,2 z" style="fill:black;"/>
</marker>
<text id="label__N_4__N_1__subj" x="161.11328" y="-44.40625" style="fill:black;font-size:7px;font-family:Arial;text-anchor:middle;text-align:center" >subj</text>
<path style="marker-end:url(#markerendword_3);" stroke="black" fill="none" d="M 242.47217,-13.40625 242.47217,-38.40625 A 3 3 0 0 0 239.47217,-41.40625 L 83.61328,-41.40625 A 3 3 0 0 0 80.61328,-38.40625 L 80.61328,-13.40625" ></path>
<marker id="markerendword_0" markerWidth="5" markerHeight="5" markerUnits="userSpaceOnUse" orient="auto" refX="2" refY="2">
<path d="M0,0 l4,2 l-4,2 z" style="fill:black;"/>
</marker>
<text id="label__N_0__N_4__root" x="136.84277" y="-54.40625" style="fill:black;font-size:7px;font-family:Arial;text-anchor:middle;text-align:center" >root</text>
<path style="marker-end:url(#markerendword_0);" stroke="black" fill="none" d="M 26.84277,-13.40625 26.84277,-48.40625 A 3 3 0 0 1 29.84277,-51.40625 L 244.47217,-51.40625 A 3 3 0 0 1 247.47217,-48.40625 L 247.47217,-13.40625" ></path>


</g>
</svg>
