<?xml version="1.0" standalone="no"?>
<!DOCTYPE svg PUBLIC "-//W3C//DTD SVG 1.1//EN"
"http://www.w3.org/Graphics/SVG/1.1/DTD/svg11.dtd">
<!-- Created with dep2pict 2.35.0 -->
<svg xmlns:svg="http://www.w3.org/2000/svg" xmlns="http://www.w3.org/2000/svg" xmlns:xlink="http://www.w3.org/1999/xlink" width="423.71289" height="160.53906">
<rect x="0" y="0" width="423.71289" height="160.53906" style="fill:transparent;fill-opacity:1;" />
<g  transform="translate(0,114.89844) scale(2,2)">
<text id="word__N_1" x="19.5549" y="-14.4062" font-style="normal" font-weight="normal" fill="black" font-size="12" font-family="Arial" text-anchor="middle" text-align="center">
<tspan   x="19.5549" dy="12.8633">ce</tspan>
</text>
<text id="subword__N_1" x="19.5549" y="-1.54297" fill="black" font-size="7" font-family="Arial" text-anchor="middle" text-align="center">
<tspan   x="19.5549" dy="8.33691">PRON</tspan>
</text>
<text id="word__N_2" x="58.6648" y="-14.4062" font-style="normal" font-weight="normal" fill="black" font-size="12" font-family="Arial" text-anchor="middle" text-align="center">
<tspan   x="58.6648" dy="12.8633">que</tspan>
</text>
<text id="subword__N_2" x="58.6648" y="-1.54297" fill="black" font-size="7" font-family="Arial" text-anchor="middle" text-align="center">
<tspan   x="58.6648" dy="8.33691">PRON</tspan>
</text>
<text id="word__N_3" x="100.604" y="-14.4062" font-style="normal" font-weight="normal" fill="black" font-size="12" font-family="Arial" text-anchor="middle" text-align="center">
<tspan   x="100.604" dy="12.8633">nous</tspan>
</text>
<text id="subword__N_3" x="100.604" y="-1.54297" fill="black" font-size="7" font-family="Arial" text-anchor="middle" text-align="center">
<tspan   x="100.604" dy="8.33691">PRON</tspan>
</text>
<text id="word__N_4" x="148.55" y="-14.4062" font-style="normal" font-weight="normal" fill="black" font-size="12" font-family="Arial" text-anchor="middle" text-align="center">
<tspan   x="148.55" dy="12.8633">avons</tspan>
</text>
<text id="subword__N_4" x="148.55" y="-1.54297" fill="black" font-size="7" font-family="Arial" text-anchor="middle" text-align="center">
<tspan   x="148.55" dy="8.33691">AUX</tspan>
</text>
<text id="word__N_5" x="191.984" y="-14.4062" font-style="normal" font-weight="normal" fill="black" font-size="12" font-family="Arial" text-anchor="middle" text-align="center">
<tspan   x="191.984" dy="12.8633">été</tspan>
</text>
<text id="subword__N_5" x="191.984" y="-1.54297" fill="black" font-size="7" font-family="Arial" text-anchor="middle" text-align="center">
<tspan   x="191.984" dy="8.33691">AUX</tspan>
</text>

<marker id="markerendword_1" markerWidth="5" markerHeight="5" markerUnits="userSpaceOnUse" orient="auto" refX="2" refY="2">
<path d="M0,0 l4,2 l-4,2 z" style="fill:black;"/>
</marker>
<text id="label__N_4__N_3__subj" x="121.60352" y="-24.40625" style="fill:black;font-size:5px;font-family:Arial;text-anchor:middle;text-align:center" >subj</text>
<path style="marker-end:url(#markerendword_1);" stroke="black" fill="none" d="M 143.54980,-13.40625 143.54980,-18.40625 A 3 3 0 0 0 140.54980,-21.40625 L 103.60352,-21.40625 A 3 3 0 0 0 100.60352,-18.40625 L 100.60352,-13.40625" ></path>
<marker id="markerendword_3" markerWidth="5" markerHeight="5" markerUnits="userSpaceOnUse" orient="auto" refX="2" refY="2">
<path d="M0,0 l4,2 l-4,2 z" style="fill:black;"/>
</marker>
<text id="label__N_4__N_5__comp:aux@tense" x="171.04980" y="-24.40625" style="fill:black;font-size:5px;font-family:Arial;text-anchor:middle;text-align:center" >comp:aux@tense</text>
<path style="marker-end:url(#markerendword_3);" stroke="black" fill="none" d="M 153.54980,-13.40625 153.54980,-18.40625 A 3 3 0 0 1 156.54980,-21.40625 L 186.48438,-21.40625 A 3 3 0 0 1 189.48438,-18.40625 L 189.48438,-13.40625" ></path>
<marker id="markerendword_2" markerWidth="5" markerHeight="5" markerUnits="userSpaceOnUse" orient="auto" refX="2" refY="2">
<path d="M0,0 l4,2 l-4,2 z" style="fill:black;"/>
</marker>
<text id="label__N_1__N_4__mod@relcl" x="83.55493" y="-34.40625" style="fill:black;font-size:5px;font-family:Arial;text-anchor:middle;text-align:center" >mod@relcl</text>
<path style="marker-end:url(#markerendword_2);" stroke="black" fill="none" d="M 19.55493,-13.40625 19.55493,-28.40625 A 3 3 0 0 1 22.55493,-31.40625 L 145.54980,-31.40625 A 3 3 0 0 1 148.54980,-28.40625 L 148.54980,-13.40625" ></path>
<marker id="markerendword_0" markerWidth="5" markerHeight="5" markerUnits="userSpaceOnUse" orient="auto" refX="2" refY="2">
<path d="M0,0 l4,2 l-4,2 z" style="fill:black;"/>
</marker>
<text id="label__N_5__N_2__comp:pred" x="126.16479" y="-44.40625" style="fill:black;font-size:5px;font-family:Arial;text-anchor:middle;text-align:center" >comp:pred</text>
<path style="marker-end:url(#markerendword_0);" stroke="black" fill="none" d="M 194.48438,-13.40625 194.48438,-38.40625 A 3 3 0 0 0 191.48438,-41.40625 L 61.66479,-41.40625 A 3 3 0 0 0 58.66479,-38.40625 L 58.66479,-13.40625" ></path>


</g>
</svg>
