<?xml version="1.0" standalone="no"?>
<!DOCTYPE svg PUBLIC "-//W3C//DTD SVG 1.1//EN"
"http://www.w3.org/Graphics/SVG/1.1/DTD/svg11.dtd">
<!-- Created with dep2pict 2.37.0 -->
<svg xmlns:svg="http://www.w3.org/2000/svg" xmlns="http://www.w3.org/2000/svg" xmlns:xlink="http://www.w3.org/1999/xlink" width="705.65820" height="165.00781">
<rect x="0" y="0" width="705.65820" height="165.00781" style="fill:white;fill-opacity:0;" />
<g  transform="translate(0,119.36719) scale(2,2)">
<text id="word__N_0" x="26.8428" y="-14.4062" font-style="normal" font-weight="normal" fill="black" font-size="12" font-family="Arial" text-anchor="middle" text-align="center">
<tspan   x="26.8428" dy="12.8633">__0__</tspan>
</text>
<text id="word__N_1" x="82.9202" y="-14.4062" font-style="normal" font-weight="normal" fill="black" font-size="12" font-family="Arial" text-anchor="middle" text-align="center">
<tspan   x="82.9202" dy="12.8633">Beides</tspan>
</text>
<text id="subword__N_1" x="82.9202" y="-1.54297" fill="black" font-size="7" font-family="Arial" text-anchor="middle" text-align="center">
<tspan   x="82.9202" dy="8.33691">upos=PRON</tspan>
</text>
<text id="word__N_2" x="138.739" y="-14.4062" font-style="normal" font-weight="normal" fill="black" font-size="12" font-family="Arial" text-anchor="middle" text-align="center">
<tspan   x="138.739" dy="12.8633">sollte</tspan>
</text>
<text id="subword__N_2" x="138.739" y="-1.54297" fill="black" font-size="7" font-family="Arial" text-anchor="middle" text-align="center">
<tspan   x="138.739" dy="8.33691">upos=AUX</tspan>
</text>
<text id="word__N_3" x="197.433" y="-14.4062" font-style="normal" font-weight="normal" fill="black" font-size="12" font-family="Arial" text-anchor="middle" text-align="center">
<tspan   x="197.433" dy="12.8633">gelöscht</tspan>
</text>
<text id="subword__N_3" x="197.433" y="-1.54297" fill="black" font-size="7" font-family="Arial" text-anchor="middle" text-align="center">
<tspan   x="197.433" dy="8.33691">upos=VERB</tspan>
</text>
<text id="word__N_4" x="258.792" y="-14.4062" font-style="normal" font-weight="normal" fill="black" font-size="12" font-family="Arial" text-anchor="middle" text-align="center">
<tspan   x="258.792" dy="12.8633">werden</tspan>
</text>
<text id="subword__N_4" x="258.792" y="-1.54297" fill="black" font-size="7" font-family="Arial" text-anchor="middle" text-align="center">
<tspan   x="258.792" dy="8.33691">upos=AUX</tspan>
</text>
<text id="word__N_5" x="319.434" y="-14.4062" font-style="normal" font-weight="normal" fill="black" font-size="12" font-family="Arial" text-anchor="middle" text-align="center">
<tspan   x="319.434" dy="12.8633">!</tspan>
</text>
<text id="subword__N_5" x="319.434" y="-1.54297" fill="black" font-size="7" font-family="Arial" text-anchor="middle" text-align="center">
<tspan   x="319.434" dy="8.33691">upos=PUNCT</tspan>
</text>

<marker id="markerendword_2" markerWidth="5" markerHeight="5" markerUnits="userSpaceOnUse" orient="auto" refX="2" refY="2">
<path d="M0,0 l4,2 l-4,2 z" style="fill:black;"/>
</marker>
<text id="label__N_3__N_2__aux" x="162.73877" y="-24.40625" style="fill:black;font-size:7px;font-family:Arial;text-anchor:middle;text-align:center" >aux</text>
<path style="marker-end:url(#markerendword_2);" stroke="black" fill="none" d="M 187.43311,-13.40625 187.43311,-18.40625 A 3 3 0 0 0 184.43311,-21.40625 L 141.73877,-21.40625 A 3 3 0 0 0 138.73877,-18.40625 L 138.73877,-13.40625" ></path>
<marker id="markerendword_3" markerWidth="5" markerHeight="5" markerUnits="userSpaceOnUse" orient="auto" refX="2" refY="2">
<path d="M0,0 l4,2 l-4,2 z" style="fill:black;"/>
</marker>
<text id="label__N_3__N_4__aux:pass" x="232.93311" y="-24.40625" style="fill:black;font-size:7px;font-family:Arial;text-anchor:middle;text-align:center" >aux:pass</text>
<path style="marker-end:url(#markerendword_3);" stroke="black" fill="none" d="M 207.43311,-13.40625 207.43311,-18.40625 A 3 3 0 0 1 210.43311,-21.40625 L 255.79150,-21.40625 A 3 3 0 0 1 258.79150,-18.40625 L 258.79150,-13.40625" ></path>
<marker id="markerendword_1" markerWidth="5" markerHeight="5" markerUnits="userSpaceOnUse" orient="auto" refX="2" refY="2">
<path d="M0,0 l4,2 l-4,2 z" style="fill:black;"/>
</marker>
<text id="label__N_3__N_1__nsubj:pass" x="137.42017" y="-34.40625" style="fill:black;font-size:7px;font-family:Arial;text-anchor:middle;text-align:center" >nsubj:pass</text>
<path style="marker-end:url(#markerendword_1);" stroke="black" fill="none" d="M 192.43311,-13.40625 192.43311,-28.40625 A 3 3 0 0 0 189.43311,-31.40625 L 85.92017,-31.40625 A 3 3 0 0 0 82.92017,-28.40625 L 82.92017,-13.40625" ></path>
<marker id="markerendword_4" markerWidth="5" markerHeight="5" markerUnits="userSpaceOnUse" orient="auto" refX="2" refY="2">
<path d="M0,0 l4,2 l-4,2 z" style="fill:black;"/>
</marker>
<text id="label__N_3__N_5__punct" x="260.93311" y="-34.40625" style="fill:black;font-size:7px;font-family:Arial;text-anchor:middle;text-align:center" >punct</text>
<path style="marker-end:url(#markerendword_4);" stroke="black" fill="none" d="M 202.43311,-13.40625 202.43311,-28.40625 A 3 3 0 0 1 205.43311,-31.40625 L 316.43433,-31.40625 A 3 3 0 0 1 319.43433,-28.40625 L 319.43433,-13.40625" ></path>
<marker id="markerendword_0" markerWidth="5" markerHeight="5" markerUnits="userSpaceOnUse" orient="auto" refX="2" refY="2">
<path d="M0,0 l4,2 l-4,2 z" style="fill:black;"/>
</marker>
<text id="label__N_0__N_3__root" x="111.84277" y="-44.40625" style="fill:black;font-size:7px;font-family:Arial;text-anchor:middle;text-align:center" >root</text>
<path style="marker-end:url(#markerendword_0);" stroke="black" fill="none" d="M 26.84277,-13.40625 26.84277,-38.40625 A 3 3 0 0 1 29.84277,-41.40625 L 194.43311,-41.40625 A 3 3 0 0 1 197.43311,-38.40625 L 197.43311,-13.40625" ></path>


</g>
</svg>
