<?xml version="1.0" standalone="no"?>
<!DOCTYPE svg PUBLIC "-//W3C//DTD SVG 1.1//EN"
"http://www.w3.org/Graphics/SVG/1.1/DTD/svg11.dtd">
<!-- Created with dep2pict 2.37.0 -->
<svg xmlns:svg="http://www.w3.org/2000/svg" xmlns="http://www.w3.org/2000/svg" xmlns:xlink="http://www.w3.org/1999/xlink" width="834.23145" height="198.35547">
<rect x="0" y="0" width="834.23145" height="198.35547" style="fill:white;fill-opacity:0;" />
<g  transform="translate(0,119.36719) scale(2,2)">
<text id="word__N_0" x="26.8428" y="-14.4062" font-style="normal" font-weight="normal" fill="black" font-size="12" font-family="Arial" text-anchor="middle" text-align="center">
<tspan   x="26.8428" dy="12.8633">__0__</tspan>
</text>
<text id="word__N_1" x="90.8721" y="-14.4062" font-style="normal" font-weight="normal" fill="black" font-size="12" font-family="Arial" text-anchor="middle" text-align="center">
<tspan   x="90.8721" dy="12.8633">Beides</tspan>
</text>
<text id="subword__N_1" x="90.8721" y="-1.54297" fill="black" font-size="7" font-family="Arial" text-anchor="middle" text-align="center">
<tspan   x="90.8721" dy="8.33691">upos=PRON</tspan>
<tspan   x="90.8721" dy="8.33691">textform=Beides</tspan>
<tspan   x="90.8721" dy="8.33691">wordform=Beides</tspan>
</text>
<text id="word__N_2" x="162.704" y="-14.4062" font-style="normal" font-weight="normal" fill="black" font-size="12" font-family="Arial" text-anchor="middle" text-align="center">
<tspan   x="162.704" dy="12.8633">sollte</tspan>
</text>
<text id="subword__N_2" x="162.704" y="-1.54297" fill="black" font-size="7" font-family="Arial" text-anchor="middle" text-align="center">
<tspan   x="162.704" dy="8.33691">upos=AUX</tspan>
<tspan   x="162.704" dy="8.33691">textform=sollte</tspan>
<tspan   x="162.704" dy="8.33691">wordform=sollte</tspan>
</text>
<text id="word__N_3" x="236.979" y="-14.4062" font-style="normal" font-weight="normal" fill="black" font-size="12" font-family="Arial" text-anchor="middle" text-align="center">
<tspan   x="236.979" dy="12.8633">gelöscht</tspan>
</text>
<text id="subword__N_3" x="236.979" y="-1.54297" fill="black" font-size="7" font-family="Arial" text-anchor="middle" text-align="center">
<tspan   x="236.979" dy="8.33691">upos=VERB</tspan>
<tspan   x="236.979" dy="8.33691">textform=gelöscht</tspan>
<tspan   x="236.979" dy="8.33691">wordform=gelöscht</tspan>
</text>
<text id="word__N_4" x="314.468" y="-14.4062" font-style="normal" font-weight="normal" fill="black" font-size="12" font-family="Arial" text-anchor="middle" text-align="center">
<tspan   x="314.468" dy="12.8633">werden</tspan>
</text>
<text id="subword__N_4" x="314.468" y="-1.54297" fill="black" font-size="7" font-family="Arial" text-anchor="middle" text-align="center">
<tspan   x="314.468" dy="8.33691">upos=AUX</tspan>
<tspan   x="314.468" dy="8.33691">textform=werden</tspan>
<tspan   x="314.468" dy="8.33691">wordform=werden</tspan>
</text>
<text id="word__N_5" x="383.721" y="-14.4062" font-style="normal" font-weight="normal" fill="black" font-size="12" font-family="Arial" text-anchor="middle" text-align="center">
<tspan   x="383.721" dy="12.8633">!</tspan>
</text>
<text id="subword__N_5" x="383.721" y="-1.54297" fill="black" font-size="7" font-family="Arial" text-anchor="middle" text-align="center">
<tspan   x="383.721" dy="8.33691">upos=PUNCT</tspan>
<tspan   x="383.721" dy="8.33691">textform=!</tspan>
<tspan   x="383.721" dy="8.33691">wordform=!</tspan>
</text>

<marker id="markerendword_2" markerWidth="5" markerHeight="5" markerUnits="userSpaceOnUse" orient="auto" refX="2" refY="2">
<path d="M0,0 l4,2 l-4,2 z" style="fill:black;"/>
</marker>
<text id="label__N_3__N_2__aux" x="194.70386" y="-24.40625" style="fill:black;font-size:7px;font-family:Arial;text-anchor:middle;text-align:center" >aux</text>
<path style="marker-end:url(#markerendword_2);" stroke="black" fill="none" d="M 226.97949,-13.40625 226.97949,-18.40625 A 3 3 0 0 0 223.97949,-21.40625 L 165.70386,-21.40625 A 3 3 0 0 0 162.70386,-18.40625 L 162.70386,-13.40625" ></path>
<marker id="markerendword_3" markerWidth="5" markerHeight="5" markerUnits="userSpaceOnUse" orient="auto" refX="2" refY="2">
<path d="M0,0 l4,2 l-4,2 z" style="fill:black;"/>
</marker>
<text id="label__N_3__N_4__aux:pass" x="280.47949" y="-24.40625" style="fill:black;font-size:7px;font-family:Arial;text-anchor:middle;text-align:center" >aux:pass</text>
<path style="marker-end:url(#markerendword_3);" stroke="black" fill="none" d="M 246.97949,-13.40625 246.97949,-18.40625 A 3 3 0 0 1 249.97949,-21.40625 L 311.46802,-21.40625 A 3 3 0 0 1 314.46802,-18.40625 L 314.46802,-13.40625" ></path>
<marker id="markerendword_1" markerWidth="5" markerHeight="5" markerUnits="userSpaceOnUse" orient="auto" refX="2" refY="2">
<path d="M0,0 l4,2 l-4,2 z" style="fill:black;"/>
</marker>
<text id="label__N_3__N_1__nsubj:pass" x="161.37207" y="-34.40625" style="fill:black;font-size:7px;font-family:Arial;text-anchor:middle;text-align:center" >nsubj:pass</text>
<path style="marker-end:url(#markerendword_1);" stroke="black" fill="none" d="M 231.97949,-13.40625 231.97949,-28.40625 A 3 3 0 0 0 228.97949,-31.40625 L 93.87207,-31.40625 A 3 3 0 0 0 90.87207,-28.40625 L 90.87207,-13.40625" ></path>
<marker id="markerendword_4" markerWidth="5" markerHeight="5" markerUnits="userSpaceOnUse" orient="auto" refX="2" refY="2">
<path d="M0,0 l4,2 l-4,2 z" style="fill:black;"/>
</marker>
<text id="label__N_3__N_5__punct" x="312.47949" y="-34.40625" style="fill:black;font-size:7px;font-family:Arial;text-anchor:middle;text-align:center" >punct</text>
<path style="marker-end:url(#markerendword_4);" stroke="black" fill="none" d="M 241.97949,-13.40625 241.97949,-28.40625 A 3 3 0 0 1 244.97949,-31.40625 L 380.72095,-31.40625 A 3 3 0 0 1 383.72095,-28.40625 L 383.72095,-13.40625" ></path>
<marker id="markerendword_0" markerWidth="5" markerHeight="5" markerUnits="userSpaceOnUse" orient="auto" refX="2" refY="2">
<path d="M0,0 l4,2 l-4,2 z" style="fill:black;"/>
</marker>
<text id="label__N_0__N_3__root" x="131.84277" y="-44.40625" style="fill:black;font-size:7px;font-family:Arial;text-anchor:middle;text-align:center" >root</text>
<path style="marker-end:url(#markerendword_0);" stroke="black" fill="none" d="M 26.84277,-13.40625 26.84277,-38.40625 A 3 3 0 0 1 29.84277,-41.40625 L 233.97949,-41.40625 A 3 3 0 0 1 236.97949,-38.40625 L 236.97949,-13.40625" ></path>


</g>
</svg>
