<?xml version="1.0" standalone="no"?>
<!DOCTYPE svg PUBLIC "-//W3C//DTD SVG 1.1//EN"
"http://www.w3.org/Graphics/SVG/1.1/DTD/svg11.dtd">
<!-- Created with dep2pict 2.35.0 -->
<svg xmlns:svg="http://www.w3.org/2000/svg" xmlns="http://www.w3.org/2000/svg" xmlns:xlink="http://www.w3.org/1999/xlink" width="541.28613" height="160.53906">
<rect x="0" y="0" width="541.28613" height="160.53906" style="fill:transparent;fill-opacity:1;" />
<g  transform="translate(0,114.89844) scale(2,2)">
<text id="word__N_1" x="27.6748" y="-14.4062" font-style="normal" font-weight="normal" fill="black" font-size="12" font-family="Arial" text-anchor="middle" text-align="center">
<tspan   x="27.6748" dy="12.8633">Beides</tspan>
</text>
<text id="subword__N_1" x="27.6748" y="-1.54297" fill="black" font-size="7" font-family="Arial" text-anchor="middle" text-align="center">
<tspan   x="27.6748" dy="8.33691">PRON</tspan>
</text>
<text id="word__N_2" x="78.9229" y="-14.4062" font-style="normal" font-weight="normal" fill="black" font-size="12" font-family="Arial" text-anchor="middle" text-align="center">
<tspan   x="78.9229" dy="12.8633">sollte</tspan>
</text>
<text id="subword__N_2" x="78.9229" y="-1.54297" fill="black" font-size="7" font-family="Arial" text-anchor="middle" text-align="center">
<tspan   x="78.9229" dy="8.33691">AUX</tspan>
</text>
<text id="word__N_3" x="134.606" y="-14.4062" font-style="normal" font-weight="normal" fill="black" font-size="12" font-family="Arial" text-anchor="middle" text-align="center">
<tspan   x="134.606" dy="12.8633">gelöscht</tspan>
</text>
<text id="subword__N_3" x="134.606" y="-1.54297" fill="black" font-size="7" font-family="Arial" text-anchor="middle" text-align="center">
<tspan   x="134.606" dy="8.33691">VERB</tspan>
</text>
<text id="word__N_4" x="195.965" y="-14.4062" font-style="normal" font-weight="normal" fill="black" font-size="12" font-family="Arial" text-anchor="middle" text-align="center">
<tspan   x="195.965" dy="12.8633">werden</tspan>
</text>
<text id="subword__N_4" x="195.965" y="-1.54297" fill="black" font-size="7" font-family="Arial" text-anchor="middle" text-align="center">
<tspan   x="195.965" dy="8.33691">AUX</tspan>
</text>
<text id="word__N_5" x="246.928" y="-14.4062" font-style="normal" font-weight="normal" fill="black" font-size="12" font-family="Arial" text-anchor="middle" text-align="center">
<tspan   x="246.928" dy="12.8633">!</tspan>
</text>
<text id="subword__N_5" x="246.928" y="-1.54297" fill="black" font-size="7" font-family="Arial" text-anchor="middle" text-align="center">
<tspan   x="246.928" dy="8.33691">PUNCT</tspan>
</text>

<marker id="markerendword_0" markerWidth="5" markerHeight="5" markerUnits="userSpaceOnUse" orient="auto" refX="2" refY="2">
<path d="M0,0 l4,2 l-4,2 z" style="fill:black;"/>
</marker>
<text id="label__N_2__N_1__subj@pass" x="50.67480" y="-24.40625" style="fill:black;font-size:5px;font-family:Arial;text-anchor:middle;text-align:center" >subj@pass</text>
<path style="marker-end:url(#markerendword_0);" stroke="black" fill="none" d="M 73.92285,-13.40625 73.92285,-18.40625 A 3 3 0 0 0 70.92285,-21.40625 L 30.67480,-21.40625 A 3 3 0 0 0 27.67480,-18.40625 L 27.67480,-13.40625" ></path>
<marker id="markerendword_1" markerWidth="5" markerHeight="5" markerUnits="userSpaceOnUse" orient="auto" refX="2" refY="2">
<path d="M0,0 l4,2 l-4,2 z" style="fill:black;"/>
</marker>
<text id="label__N_4__N_3__comp:aux@pass" x="163.60645" y="-24.40625" style="fill:black;font-size:5px;font-family:Arial;text-anchor:middle;text-align:center" >comp:aux@pass</text>
<path style="marker-end:url(#markerendword_1);" stroke="black" fill="none" d="M 193.46484,-13.40625 193.46484,-18.40625 A 3 3 0 0 0 190.46484,-21.40625 L 137.60645,-21.40625 A 3 3 0 0 0 134.60645,-18.40625 L 134.60645,-13.40625" ></path>
<marker id="markerendword_2" markerWidth="5" markerHeight="5" markerUnits="userSpaceOnUse" orient="auto" refX="2" refY="2">
<path d="M0,0 l4,2 l-4,2 z" style="fill:black;"/>
</marker>
<text id="label__N_2__N_4__comp:aux" x="140.92285" y="-34.40625" style="fill:black;font-size:5px;font-family:Arial;text-anchor:middle;text-align:center" >comp:aux</text>
<path style="marker-end:url(#markerendword_2);" stroke="black" fill="none" d="M 83.92285,-13.40625 83.92285,-28.40625 A 3 3 0 0 1 86.92285,-31.40625 L 195.46484,-31.40625 A 3 3 0 0 1 198.46484,-28.40625 L 198.46484,-13.40625" ></path>
<marker id="markerendword_3" markerWidth="5" markerHeight="5" markerUnits="userSpaceOnUse" orient="auto" refX="2" refY="2">
<path d="M0,0 l4,2 l-4,2 z" style="fill:black;"/>
</marker>
<text id="label__N_2__N_5__punct" x="162.92285" y="-44.40625" style="fill:black;font-size:5px;font-family:Arial;text-anchor:middle;text-align:center" >punct</text>
<path style="marker-end:url(#markerendword_3);" stroke="black" fill="none" d="M 78.92285,-13.40625 78.92285,-38.40625 A 3 3 0 0 1 81.92285,-41.40625 L 243.92798,-41.40625 A 3 3 0 0 1 246.92798,-38.40625 L 246.92798,-13.40625" ></path>


</g>
</svg>
